# xmcd CD database file
#
# Track frame offsets:
#	150
#	20075
#	53177
#	63762
#	87305
#	107552
#	118702
#	135745
#	159855
#	172062
#	187375
#	216440
#
# Disc length: 3595 seconds
#
# Revision: 1
# Processed by: cddbd v1.5.2PL0 Copyright (c) Steve Scherf et al.
# Submitted via: CDex 1.51
#
DISCID=ae0e090c
DTITLE=Susan McCann - String Of Diamonds [CD1]
DYEAR=2001
DGENRE=Country
TTITLE0=Love Is In The Air Medley
TTITLE1=Tribute To Patsy Medley
TTITLE2=Love Bug
TTITLE3=Country Medley
TTITLE4=Rock "N" Roll Medley
TTITLE5=Little Ole Wine Drinker Me
TTITLE6=50s Love Songs Medley
TTITLE7=String Of Diamonds Medley
TTITLE8=Travellin` Light
TTITLE9=Penny Arcade
TTITLE10=Love Medley
TTITLE11=Irish Medley
EXTD=YEAR: 2001
EXTT0=
EXTT1=
EXTT2=
EXTT3=
EXTT4=
EXTT5=
EXTT6=
EXTT7=
EXTT8=
EXTT9=
EXTT10=
EXTT11=
PLAYORDER=
